# xmcd
#
# Track frame offsets:
#	150
#	4067
#	24706
#	49304
#	69475
#	81996
#	105083
#	121019
#	146608
#	163912
#	184980
#	202581
#	215318
#	229280
#	247779
#	261986
#	276947
#	292626
#	308057
#	330631
#
# Disc length: 4589 seconds
#
# Revision: 0
# Processed by: cddbd v1.5.2PL0 Copyright (c) Steve Scherf et al.
# Submitted via: EasyCDDAExtractor 10.2.0.1
#
DISCID=1311eb14
DTITLE=ΔΙΑΦΟΡΟΙ - CD1 - ΛΙΝΑ ΚΟΚΑΛΟΚΟΠΟΥΛΟΥ - ΧΡΟΝΙΑ ΠΟΛΛΑ ΤΡΑΓΟΥΔΙ ΜΟΥ
DYEAR=2010
DGENRE=
TTITLE0=HAPPY BIRTHDAY
TTITLE1=ΤΟ ΧΕΙΡΟΚΡΟΤΗΜΑ
TTITLE2=ΝΑ Μ' ΑΓΑΠΑΣ
TTITLE3=ΚΟΙΤΑ ΜΙΑ ΝΥΧΤΑ
TTITLE4=ΠΡΟΣΩΠΟ ΜΕ ΠΡΟΣΩΠΟ
TTITLE5=ΤΟ ΠΑΡΤΥ
TTITLE6=ΔΙΚΑΙΩΜΑ
TTITLE7=ΠΡΙΝ ΤΟ ΤΕΛΟΣ
TTITLE8=Η ΕΠΟΧΗ ΤΗΣ ΑΓΑΠΗΣ
TTITLE9=ΑΧ, ΕΛΑ ΚΑΙ ΑΝΑΨΕ ΤΟ ΦΩΣ
TTITLE10=ΤΗΣ ΚΑΛΗΝΥΧΤΑΣ ΤΑ ΦΙΛΙΑ
TTITLE11=ΚΑΗΜΕ ΤΟΥ ΚΟΣΜΟΥ
TTITLE12=Ο,ΤΙ ΚΙ ΑΝ ΓΙΝΕΙ
TTITLE13=ΠΑΤΩΜΑ
TTITLE14=ΤΟΥ ΑΓΙΟΥ ΒΑΛΕΝΤΙΝΟΥ
TTITLE15=ΜΑΓΙΣΣΑ
TTITLE16=ΟΣΤΡΑΚΟ
TTITLE17=ΑΝΑΚΑΛΥΨΑΜΕ ΚΑΤΙ ΠΑΛΙΟ
TTITLE18=ΑΝΘΡΩΠΩΝ ΕΡΓΑ
TTITLE19=ΑΠΟΨΕ ΠΟΥΘΕΝΑ
EXTD=
EXTT0=
EXTT1=
EXTT2=
EXTT3=
EXTT4=
EXTT5=
EXTT6=
EXTT7=
EXTT8=
EXTT9=
EXTT10=
EXTT11=
EXTT12=
EXTT13=
EXTT14=
EXTT15=
EXTT16=
EXTT17=
EXTT18=
EXTT19=
PLAYORDER=
